<svg id="BACKGROUND_2" data-name="BACKGROUND 2" xmlns="http://www.w3.org/2000/svg" viewBox="0 0 750 475.19"><defs><style>.cls-1{fill:#ffd392;opacity:0.3;}.cls-2{fill:#d3662f;}.cls-3{fill:#e07748;}.cls-4{fill:#a5411b;}.cls-5{fill:#bc5324;}.cls-6{fill:#eda769;}.cls-7{fill:#e47435;}.cls-8{fill:#ec813b;}.cls-9{fill:#fff;}.cls-10{fill:#f9fbfc;}</style></defs><title>smars-background2</title><g id="object"><circle class="cls-1" cx="581.09" cy="134.6" r="129.01"/><circle class="cls-1" cx="581.09" cy="134.6" r="103.49"/><circle class="cls-1" cx="581.09" cy="134.6" r="83.45"/><path class="cls-2" d="M1058.92,139.08c-.11.41-.22.82-.32,1.23a72.27,72.27,0,1,0,.32-1.23Z" transform="translate(-550 -24.81)"/><path class="cls-3" d="M1058.92,139.08c-.11.41-.22.82-.32,1.23L1206,162.18a74.59,74.59,0,0,0-5.16-30.21l-119-29.1A74.63,74.63,0,0,0,1058.92,139.08Z" transform="translate(-550 -24.81)"/><path class="cls-3" d="M1056.16,156.3a74.52,74.52,0,0,0,1.31,17.38l117.89,46.25a74.67,74.67,0,0,0,20.23-22.25Z" transform="translate(-550 -24.81)"/><path class="cls-4" d="M1092,125.38a16.84,16.84,0,1,0,20.78-11.65A16.77,16.77,0,0,0,1092,125.38Z" transform="translate(-550 -24.81)"/><path class="cls-5" d="M1093.88,131.43a16.87,16.87,0,0,0-.54,6.36,16.84,16.84,0,0,0,31.64-9.64,16.83,16.83,0,0,0-31.1,3.28Z" transform="translate(-550 -24.81)"/><path class="cls-4" d="M1160.78,174.43a13.32,13.32,0,1,0,18.2-4.88A13.2,13.2,0,0,0,1160.78,174.43Z" transform="translate(-550 -24.81)"/><path class="cls-5" d="M1161,179.43a13.11,13.11,0,0,0-1.65,4.77A13.31,13.31,0,0,0,1185.5,183a13.31,13.31,0,0,0-24.48-3.55Z" transform="translate(-550 -24.81)"/><path class="cls-4" d="M1149,195a8.33,8.33,0,1,0,9.38,13.78,8.15,8.15,0,0,0,2.22-2.24A8.33,8.33,0,0,0,1149,195Z" transform="translate(-550 -24.81)"/><path class="cls-5" d="M1147.78,197.86a8.33,8.33,0,0,0-2.23,2.24,8.33,8.33,0,0,0,12.83,8.66,8.15,8.15,0,0,0,2.22-2.24,8.32,8.32,0,0,0-12.82-8.66Z" transform="translate(-550 -24.81)"/><path class="cls-4" d="M1128.48,127.06a7.5,7.5,0,0,0,14.43,4.07,7.61,7.61,0,0,0,.23-2.83,7.49,7.49,0,0,0-14.66-1.24Z" transform="translate(-550 -24.81)"/><path class="cls-5" d="M1129.31,129.75a7.45,7.45,0,0,0-.24,2.84,7.49,7.49,0,0,0,13.84-1.46,7.61,7.61,0,0,0,.23-2.83,7.48,7.48,0,0,0-13.83,1.45Z" transform="translate(-550 -24.81)"/><path class="cls-4" d="M1089.57,106.45a3.1,3.1,0,0,0,2.15,3.83,3.11,3.11,0,1,0-2.15-3.83Z" transform="translate(-550 -24.81)"/><path class="cls-5" d="M1089.91,107.56a3.19,3.19,0,0,0-.1,1.18,3.07,3.07,0,0,0,1.91,1.54,3.11,3.11,0,0,0,3.93-3.32,3.11,3.11,0,0,0-5.74.6Z" transform="translate(-550 -24.81)"/><path class="cls-4" d="M1073.75,191.41a3.11,3.11,0,0,0,6,1.68,2.76,2.76,0,0,0,.1-1.17,3.11,3.11,0,0,0-6.08-.51Z" transform="translate(-550 -24.81)"/><path class="cls-5" d="M1074.1,192.52a2.76,2.76,0,0,0-.1,1.17,3.1,3.1,0,0,0,5.73-.6,2.76,2.76,0,0,0,.1-1.17,3.1,3.1,0,0,0-5.73.6Z" transform="translate(-550 -24.81)"/><path class="cls-4" d="M1101.41,190.66a3.1,3.1,0,1,0,1,6.13,3,3,0,0,0,1.11-.4,3.1,3.1,0,0,0-2.08-5.73Z" transform="translate(-550 -24.81)"/><path class="cls-5" d="M1100.54,191.43a3.22,3.22,0,0,0-1.11.41,3.1,3.1,0,0,0,3,4.95,3,3,0,0,0,1.11-.4,3.11,3.11,0,0,0-3-5Z" transform="translate(-550 -24.81)"/><path class="cls-6" d="M1300,202.53V500H550V253.15c12.65,2.29,27.53,5.09,32.92,6.52,10.08,2.66,13.41,12.66,15.41,13.33s13.31,2.67,13.31,2.67l13.92-19.34L669,218.08h38.67l25.68,31.47,36.82,20.12,36.08,16,54.26,14L896.09,295l47.08-19.33H985l85.56-16.8,72.67,29,47.14-45,22.42-13.1h14.76l13.32-2.5,16.7-90.68,13.13,4.41-.1,37.59H1283l1.33,16.76Z" transform="translate(-550 -24.81)"/><path class="cls-7" d="M1300,347.64V500H550V337.22c7-.44,11.71-5.52,20.23-7.32,6.9-1.47,15.56,1.86,22.65,2.11,12.5.43,24.93-2.72,37.89-2,5.44.3,6.36-.66,11.28,1.48,7,3,8.64,11,15.33,14,9.24,4.22,27-6.75,37.61-8.76,13-2.46,25.41,1.45,38.43-3.9,7.68-3.16,10.12-5.67,18.49-5.65,6.79,0,14.37,1.06,21.16,1.77,11.71,1.23,23.66,9.46,35,8.91,10.47-.5,19.73-8.34,30-9.91a122.43,122.43,0,0,1,23.84-.49c7.46.6,15.54,1,22,3.39,4.49,1.68,6.66,5,12,6,5,.93,10.27-.56,15.17.72,7.35,1.91,11.2,4.53,19,5.37,6.09.66,12.47.82,18.33,3.15,9.21,3.66,12.66,6.81,23.48,5,12.41-2.05,24.25-7.31,36.54-9.16,13.31-2,27.19-1.68,39.47-5.43,12.75-3.89,25.1-8.38,38-11.81,4.63-1.23,10.72-3.89,15.61-2.69,10.24,2.51,8.31,8.76,20.07,5.95,17.3-4.12,31.11,1.87,48.71,3,16.06,1,25.06,13,42.69,11,11.4-1.29,22.46-4,34-5,7-.6,14.49-1.79,21.49-.5,7.83,1.43,11.42,6.33,18.31,9.22A29.15,29.15,0,0,0,1300,347.64Z" transform="translate(-550 -24.81)"/><path class="cls-8" d="M565.5,427l1.21.4c-.86.08-1.72.14-2.57.18A4.11,4.11,0,0,1,565.5,427Z" transform="translate(-550 -24.81)"/><path class="cls-8" d="M733.35,414c-4.28-.13-8.51,2-12.44,3.39-11.84,4.12-22.86,7.62-35.55,7.65-17.28,0-31.32,3-48,6.84-10.13,2.35-18.44-.05-28.6-.38-10.58-.33-21.12-.45-30.35-1.66a67.46,67.46,0,0,1-11.67-2.45c11.15-1.08,23.15-5.93,33.32-9.9,9-3.52,14.3-8.06,21.59-13.59,6.49-4.93,15-6.32,23-6.42,10.1-.13,20.22,3,30.14,2.81,4.37-.08,7.73-2.75,11.6-4.46a14.77,14.77,0,0,1,5.73-1.39,21.87,21.87,0,0,1,9.89,2.28c5.17,3,5.29,6.68,11.74,8.38C721.32,407.13,726.52,411,733.35,414Z" transform="translate(-550 -24.81)"/><path class="cls-2" d="M565.5,427l1.21.4c-.86.08-1.72.14-2.57.18A4.11,4.11,0,0,1,565.5,427Z" transform="translate(-550 -24.81)"/><path class="cls-2" d="M703.76,403.43c-4,1.34-8-.65-12.29-.45-4.87.22-9.65,2.27-14.59,2.52-10,.51-19.41-2.25-29.3-.43.21,2.57,9.35,3.81,11.83,4.52-4.65,2.87-10.69,3.42-15.89,4.9-6.1,1.74-11.8,4.92-18,6.52-7.23,1.87-14.86,1.81-22.21,3.05-8.17,1.39-16.56,4.45-24.93,5.79a67.46,67.46,0,0,1-11.67-2.45c11.15-1.08,23.15-5.93,33.32-9.9,9-3.52,14.3-8.06,21.59-13.59,6.49-4.93,15-6.32,23-6.42,10.1-.13,20.22,3,30.14,2.81,4.37-.08,7.73-2.75,11.6-4.46l.44.21C692.42,398.76,698.42,400.2,703.76,403.43Z" transform="translate(-550 -24.81)"/><path class="cls-8" d="M1270.66,424.85c-21.24,1.56-42.93-.57-64.36-.51-14.26,0-28.57-3.44-42.68-2-10.43,1-18.51,1.51-28.92.42-14.49-1.52-27.83-1-41.56-3.75,4.95.09,13.46-2.39,15.19-2,8.36-.14,16.52-2.37,23.2-7.33,5.14-3.82,7.79-5,14.14-5.68,11.13-1.12,21.25-7.22,32-8.32a13.5,13.5,0,0,1,2.77,0c5.41.5,10.91,3.73,15.94,5.32,10.93,3.46,22,8.12,33.26,11.18,9.28,2.5,18.62,6,27.9,9C1261.92,422.58,1266.31,423.86,1270.66,424.85Z" transform="translate(-550 -24.81)"/><path class="cls-2" d="M1257.53,421.17c-1.2.09-2.4.3-3.61.34-2.41.07-4.74-.75-7.09-1.22-4.46-.88-8.74-2.53-13.17-3.47-5.75-1.23-11.65-1.2-17.47-1.85-8.08-.91-16,.64-24-.8a74.85,74.85,0,0,0-15.07-1.49c-2.54.06-6.43.23-9.13,1.22,2.31-1.09,4.54-2.43,6.83-3.54,2.86-1.38,4.71-3.07,7.21-4.88,1.27-.92,5.17-2.22,4.23-4.38-.21-.47-1.18-.82-1.54-1.23-.71-.84-.92-1.8-1.78-2.54a14.58,14.58,0,0,0-2.49-1.66c5.41.5,10.91,3.73,15.94,5.32,10.93,3.46,22,8.12,33.26,11.18C1238.91,414.67,1248.25,418.19,1257.53,421.17Z" transform="translate(-550 -24.81)"/><path class="cls-8" d="M1300,426.91V500H550V426.91c100.81-19.19,231.81-17.85,375-17.85S1199.19,407.72,1300,426.91Z" transform="translate(-550 -24.81)"/><path class="cls-9" d="M1263.08,67.63s-90.63,36.05-92.88,36.83a4.31,4.31,0,0,1-2.83-8.15C1169.62,95.52,1263.08,67.63,1263.08,67.63Z" transform="translate(-550 -24.81)"/><path class="cls-9" d="M1117.91,156.91c-3.22,0-3.23,5,0,5S1121.13,156.91,1117.91,156.91Z" transform="translate(-550 -24.81)"/><path class="cls-9" d="M981.24,176.09c-3.22,0-3.22,5,0,5S984.46,176.09,981.24,176.09Z" transform="translate(-550 -24.81)"/><path class="cls-9" d="M1247,33.33c-3.22,0-3.22,5,0,5S1250.22,33.33,1247,33.33Z" transform="translate(-550 -24.81)"/><path class="cls-9" d="M846.33,167.77c-3.21,0-3.22,5,0,5S849.56,167.77,846.33,167.77Z" transform="translate(-550 -24.81)"/><path class="cls-9" d="M919.07,224.77c-3.22,0-3.22,5,0,5S922.29,224.77,919.07,224.77Z" transform="translate(-550 -24.81)"/><path class="cls-9" d="M703.72,94.68s-58.64,23.33-60.1,23.84a2.8,2.8,0,0,1-1.84-5.28C643.24,112.73,703.72,94.68,703.72,94.68Z" transform="translate(-550 -24.81)"/><path class="cls-9" d="M713.92,52.67c-3.22,0-3.22,5,0,5S717.14,52.67,713.92,52.67Z" transform="translate(-550 -24.81)"/><path class="cls-10" d="M1231.61,132.89l-.52,1.8-.53-1.8a6.36,6.36,0,0,0-3-3.8,6.34,6.34,0,0,0,3-3.79l.53-1.8.52,1.8a6.39,6.39,0,0,0,3.06,3.79A6.41,6.41,0,0,0,1231.61,132.89Z" transform="translate(-550 -24.81)"/><path class="cls-10" d="M1143.71,59.73l-.52,1.79-.53-1.79a6.33,6.33,0,0,0-3.05-3.8,6.36,6.36,0,0,0,3.05-3.8l.53-1.8.52,1.8a6.41,6.41,0,0,0,3.06,3.8A6.38,6.38,0,0,0,1143.71,59.73Z" transform="translate(-550 -24.81)"/><path class="cls-10" d="M767.11,164.37l-.52,1.8-.53-1.8a6.36,6.36,0,0,0-3-3.8,6.33,6.33,0,0,0,3-3.8l.53-1.79.52,1.79a6.38,6.38,0,0,0,3.06,3.8A6.41,6.41,0,0,0,767.11,164.37Z" transform="translate(-550 -24.81)"/><path class="cls-10" d="M806.78,45.39l-.52,1.8-.53-1.8a6.36,6.36,0,0,0-3.06-3.8,6.32,6.32,0,0,0,3.06-3.79l.53-1.8.52,1.8a6.32,6.32,0,0,0,3.06,3.79A6.36,6.36,0,0,0,806.78,45.39Z" transform="translate(-550 -24.81)"/><path class="cls-10" d="M1001.11,34.21l-.52,1.79-.53-1.79a6.33,6.33,0,0,0-3-3.8,6.36,6.36,0,0,0,3-3.8l.53-1.8.52,1.8a6.41,6.41,0,0,0,3.06,3.8A6.38,6.38,0,0,0,1001.11,34.21Z" transform="translate(-550 -24.81)"/><path class="cls-10" d="M579.86,75.37l-.52,1.8-.53-1.8a6.36,6.36,0,0,0-3-3.8,6.33,6.33,0,0,0,3-3.8l.53-1.79.52,1.79a6.38,6.38,0,0,0,3.06,3.8A6.41,6.41,0,0,0,579.86,75.37Z" transform="translate(-550 -24.81)"/><path class="cls-8" d="M1166.72,414.47a7.6,7.6,0,0,1,1.25-.57C1167.56,414.1,1167.14,414.29,1166.72,414.47Z" transform="translate(-550 -24.81)"/><path class="cls-2" d="M1079,468.5c6.77,0,11.84,1.17,18.49-.7a73.68,73.68,0,0,1,11-1.79c4.72-.62,8.28-3.07,12.92-4.06,3.29-.7,6.82-.67,9.91-1.95a8.52,8.52,0,0,1-2.78-4.32c4.82,1.72,10.4.05,15.87,1.32,9.06,2.11,18.25,5.89,27.49,7-8.35.16-16.41-1.52-24.63-2.51-4-.48-7.27.77-11.18.58.88,3.56,8.46,3.85,10.91,7.32-7.9.6-15.19-.74-22.92-1.39a52.24,52.24,0,0,0-13.56.5c-3.66.65-5.89,2.53-9.5,3-5.31.7-12.09-1.19-17.48-1.52-4.31-.26-9.25,0-13-1.39,1.94,0,4-.37,5.92-.5C1077.49,468,1080.78,467.27,1079,468.5Z" transform="translate(-550 -24.81)"/><path class="cls-2" d="M591.67,468.33c7.34-.56,9.9-7.46,17.51-4a56.31,56.31,0,0,1,11.72,7.87c-3.95,2.19-18,.79-23.54.85-5.25.06-10.31.15-15.46,0C584,472.15,588,470.93,591.67,468.33Z" transform="translate(-550 -24.81)"/><path class="cls-2" d="M582.41,363.72c7.35-.56,9.9-7.47,17.51-4a56.26,56.26,0,0,1,11.72,7.86c-3.95,2.2-18,.8-23.54.86-5.24.06-10.3.15-15.45,0C574.74,367.53,578.7,366.32,582.41,363.72Z" transform="translate(-550 -24.81)"/><path class="cls-2" d="M629.83,472a75,75,0,0,0,12.9-.5c2.81-.44,6-1.19,8.89-1a47.87,47.87,0,0,1-5.36-2c-1.66-.74-2.66-2.13-4-3.34s-5.23-.9-5.29,1.64a9.23,9.23,0,0,0-3.34.72,23.61,23.61,0,0,0-3.79,1.42c-1.12.64-1.31,1.2-2.13,1.92a11.89,11.89,0,0,1-2.15,1.31A15.39,15.39,0,0,0,629.83,472Z" transform="translate(-550 -24.81)"/><path class="cls-2" d="M625.17,380a75,75,0,0,0,12.9-.5c2.81-.44,6-1.18,8.88-1a45.53,45.53,0,0,1-5.36-2c-1.65-.74-2.65-2.13-4-3.34s-5.22-.9-5.28,1.64a9.67,9.67,0,0,0-3.34.72,24.08,24.08,0,0,0-3.8,1.42c-1.11.65-1.3,1.21-2.12,1.92a11.89,11.89,0,0,1-2.15,1.31A15.42,15.42,0,0,0,625.17,380Z" transform="translate(-550 -24.81)"/><path class="cls-2" d="M833.23,444.69a75.19,75.19,0,0,0,12.91-.5c2.8-.45,6-1.19,8.88-1a44.24,44.24,0,0,1-5.36-2c-1.66-.73-2.66-2.13-4-3.34s-5.23-.9-5.29,1.64a9.67,9.67,0,0,0-3.34.72,22.73,22.73,0,0,0-3.79,1.43c-1.12.64-1.31,1.2-2.13,1.91a11.89,11.89,0,0,1-2.15,1.31A15.38,15.38,0,0,0,833.23,444.69Z" transform="translate(-550 -24.81)"/><path class="cls-2" d="M1021.9,470.88a75,75,0,0,0,12.9-.5c2.81-.45,6-1.19,8.88-1a45.53,45.53,0,0,1-5.36-2c-1.65-.73-2.65-2.13-4-3.34s-5.22-.9-5.28,1.64a9.67,9.67,0,0,0-3.34.72,23.17,23.17,0,0,0-3.8,1.43c-1.11.64-1.3,1.2-2.12,1.91a11.89,11.89,0,0,1-2.15,1.31A15.41,15.41,0,0,0,1021.9,470.88Z" transform="translate(-550 -24.81)"/><path class="cls-2" d="M1241.3,458a75.11,75.11,0,0,0,12.9-.5c2.8-.44,6-1.19,8.88-1a46,46,0,0,1-5.36-2c-1.66-.74-2.66-2.13-4-3.34s-5.23-.9-5.29,1.64a9.44,9.44,0,0,0-3.34.72,23.61,23.61,0,0,0-3.79,1.42c-1.12.64-1.31,1.2-2.13,1.92a11.55,11.55,0,0,1-2.15,1.31A15.47,15.47,0,0,0,1241.3,458Z" transform="translate(-550 -24.81)"/><path class="cls-2" d="M1248.78,387.89a75.11,75.11,0,0,0,12.9-.5c2.8-.44,6-1.18,8.88-1a44.24,44.24,0,0,1-5.36-2c-1.66-.74-2.66-2.13-4-3.34s-5.23-.9-5.29,1.64a9.67,9.67,0,0,0-3.34.72,23.61,23.61,0,0,0-3.79,1.42c-1.12.65-1.31,1.21-2.13,1.92a11.55,11.55,0,0,1-2.15,1.31A15.47,15.47,0,0,0,1248.78,387.89Z" transform="translate(-550 -24.81)"/><path class="cls-2" d="M693,454.33c-3.38,0-6.5-.75-9.8-1s-5.64,1-8.43-1.43a30.93,30.93,0,0,0,10.61-6.26c3-2.74,4.16-5.28,8-6.71,6-2.23,12.15-9,18.56-6.26,3,1.29,3.67,2.74,6.08,4.58,2.08,1.58,5.25,1.64,7.66,2.49a136.75,136.75,0,0,0,17.45,5.33c3.9.83,8.78,1.35,12.44,2.61,1.1.38,1.5.06,2.35.92-9,1-19-2.93-27.29-2.34-1.58.11-3.27,1.05-4.92.67-1.46-.33-2.25-1.61-3.52-1.95-2.2-.6-4.27.4-6.44-.55-1.11-.49-2-1.66-3-2.33-1.71-1.17-3.94-3-6.21-3.11-2.78-.09-4,2.35-6.36,3.33-1.14.48-2.68.22-3.91.82-3.54,1.73-8,3.69-11.25,6.13,12.65,2.5,25.41.32,38.1,2.06-6.29,1.57-13.92,2.86-20.2,2.54A46.31,46.31,0,0,0,693,454.33Z" transform="translate(-550 -24.81)"/><path class="cls-2" d="M823,413.67c7.46-4.61,21.71-3.76,30.73-5.42C866.52,405.89,880,401,892.48,397c7.47-2.38,14.43-3.22,21.9-5.18,3.82-1,8.52-3.88,12.09-3.69,12.12.64,22,10.46,33.22,14,8.68,2.77,21.33,3.4,29.09,8.18-12.56-1.74-22.29-.78-34.81.58-7.64.83-19.9-4.16-26.27-1.47,4.81,2.82,13.64,4.11,17.21,8.1-13.2,1.68-24-5.89-37.26-5.09-9.43.57-16.82-1.55-26-2.15C861.47,409,840.64,414.84,823,413.67Z" transform="translate(-550 -24.81)"/><path class="cls-2" d="M1066.33,355c2.91-1.12,5.54-4.77,8.45-5.26,4-.67,3.82,1,7.56,1.91,6.4,1.5,12.68,2.34,19.14,4.18-7.88,2.52-18,.13-26.42.5-8.11.37-15.82,1.78-24,1.19C1056,355.48,1062.91,355.78,1066.33,355Z" transform="translate(-550 -24.81)"/><path class="cls-2" d="M715,367c8.31-.9,13.29-9,20.5-11.4,5.67-1.87,11,1.86,16.38,2.73,14.52,2.35,30.13,8.83,44.91,9.34-13.29-.56-29.44,2.41-42.45-1.31-6.83-1.95-9.12-3.84-16.53-1.88-6.79,1.8-11.42,4.95-18.8,5.33-7.9.42-16.58,3.22-24.47,2.52C701.69,371.64,712.31,370.18,715,367Z" transform="translate(-550 -24.81)"/></g></svg>