<svg xmlns="http://www.w3.org/2000/svg" xmlns:xlink="http://www.w3.org/1999/xlink" viewBox="0 0 890 890"><defs><style>.cls-1{fill:url(#linear-gradient);}.cls-2{fill:url(#linear-gradient-2);}.cls-3,.cls-7{fill:#f4d294;}.cls-3,.cls-4,.cls-5,.cls-6,.cls-7{stroke:#000;}.cls-10,.cls-11,.cls-12,.cls-13,.cls-14,.cls-3,.cls-4,.cls-5,.cls-6,.cls-7,.cls-8,.cls-9{stroke-miterlimit:10;}.cls-3,.cls-6,.cls-7{stroke-width:10px;}.cls-3{fill-rule:evenodd;}.cls-11,.cls-13,.cls-4{fill:none;}.cls-4,.cls-5{stroke-width:9px;}.cls-10,.cls-11,.cls-12,.cls-14,.cls-8,.cls-9{stroke:#231f20;stroke-width:7px;}.cls-8{fill:url(#linear-gradient-3);}.cls-9{fill:url(#linear-gradient-4);}.cls-10{fill:url(#linear-gradient-5);}.cls-12{fill:url(#linear-gradient-6);}.cls-13{stroke:lime;stroke-width:27px;}.cls-14{fill:url(#linear-gradient-7);}</style><linearGradient id="linear-gradient" x1="172.94" y1="920.15" x2="615.25" y2="147.66" gradientUnits="userSpaceOnUse"><stop offset="0" stop-color="#300"/><stop offset="0.05" stop-color="#56110c"/><stop offset="0.11" stop-color="#752016"/><stop offset="0.17" stop-color="#912d1f"/><stop offset="0.25" stop-color="#a73727"/><stop offset="0.33" stop-color="#b83f2c"/><stop offset="0.44" stop-color="#c34530"/><stop offset="0.59" stop-color="#ca4832"/><stop offset="1" stop-color="#cc4933"/></linearGradient><linearGradient id="linear-gradient-2" x1="498.06" y1="571.84" x2="651.51" y2="-86.51" gradientUnits="userSpaceOnUse"><stop offset="0" stop-color="#cc4933"/><stop offset="0.39" stop-color="#cc4b35"/><stop offset="0.53" stop-color="#ce513c"/><stop offset="0.63" stop-color="#d15b47"/><stop offset="0.71" stop-color="#d56a58"/><stop offset="0.78" stop-color="#db7e6e"/><stop offset="0.84" stop-color="#e2968a"/><stop offset="0.9" stop-color="#eab3aa"/><stop offset="0.95" stop-color="#f3d5d0"/><stop offset="0.99" stop-color="#fdfaf9"/><stop offset="1" stop-color="#fff"/></linearGradient><linearGradient id="linear-gradient-3" x1="15.89" y1="787.72" x2="18.03" y2="700.91" gradientTransform="translate(-377.71 -138.88) rotate(-45)" gradientUnits="userSpaceOnUse"><stop offset="0" stop-color="#f15a24"/><stop offset="0.08" stop-color="#f26822"/><stop offset="0.38" stop-color="#f7981b"/><stop offset="0.64" stop-color="#fabb15"/><stop offset="0.86" stop-color="#fcd012"/><stop offset="1" stop-color="#fdd811"/></linearGradient><linearGradient id="linear-gradient-4" x1="470.98" y1="1410.67" x2="470.98" y2="1328.4" gradientTransform="matrix(0.55, -0.55, 0.56, 0.56, -304.72, -15.39)" gradientUnits="userSpaceOnUse"><stop offset="0" stop-color="#3fa9f5"/><stop offset="0.27" stop-color="#2bc4f8"/><stop offset="0.75" stop-color="#0ceffd"/><stop offset="1" stop-color="aqua"/></linearGradient><linearGradient id="linear-gradient-5" x1="425.03" y1="580.4" x2="504.02" y2="826.09" gradientUnits="userSpaceOnUse"><stop offset="0" stop-color="aqua"/><stop offset="0.02" stop-color="#02fdff"/><stop offset="0.46" stop-color="#23d0f9"/><stop offset="0.8" stop-color="#37b3f6"/><stop offset="1" stop-color="#3fa9f5"/></linearGradient><linearGradient id="linear-gradient-6" x1="512.55" y1="736.32" x2="512.55" y2="607.1" gradientUnits="userSpaceOnUse"><stop offset="0" stop-color="lime"/><stop offset="0.08" stop-color="#05f807"/><stop offset="0.69" stop-color="#2ac837"/><stop offset="1" stop-color="#39b54a"/></linearGradient><linearGradient id="linear-gradient-7" x1="512.55" y1="736.24" x2="512.55" y2="607.01" xlink:href="#linear-gradient-6"/></defs><g id="Layer_2" data-name="Layer 2"><g id="Layer_1-2" data-name="Layer 1"><circle class="cls-1" cx="445" cy="445" r="445"/><path class="cls-2" d="M888,446a442.87,442.87,0,0,1-55.28,215A443.43,443.43,0,0,1,657,697c-245.77,0-445-199.23-445-445A442.87,442.87,0,0,1,267.28,37.05,443.43,443.43,0,0,1,443,1C688.77,1,888,200.23,888,446Z"/><polygon class="cls-3" points="389.99 456.46 484.8 455.07 548 723 353.12 723 389.99 456.46"/><path class="cls-3" d="M500.31,338.76S460.47,148.12,613.48,69.1c0,0,64.84,139.84-113.17,269.66"/><path class="cls-3" d="M375.39,351.09S415.24,160.45,262.22,81.43c0,0-64.83,139.84,113.17,269.66"/><path class="cls-3" d="M584.71,355.29A144.78,144.78,0,0,1,526.5,471.45h0a88.06,88.06,0,0,1-173.46,0h0A145,145,0,1,1,584.71,355.29Z"/><path class="cls-4" d="M456,484.8c-1.07-3.65-15.19-.48-17.05-.05-1.85-.43-16-3.6-17,.05-1.14,3.88-9.13,13.75,16.84,27.11v.22l.2-.11.21.11v-.22C465.09,498.55,457.11,488.68,456,484.8Z"/><circle class="cls-5" cx="507.4" cy="380.18" r="5.91"/><circle class="cls-5" cx="367.82" cy="380.18" r="5.91"/><line class="cls-6" x1="439.06" y1="512.13" x2="439.76" y2="544.27"/><circle class="cls-7" cx="243.5" cy="650.5" r="28.5"/><circle class="cls-7" cx="646.5" cy="650.5" r="28.5"/><path class="cls-8" d="M217.15,374.07l-40.92,16.14a1.83,1.83,0,0,0-1,1l-15.95,40.43a1.83,1.83,0,0,1-3.41,0L140.78,390.3a1.78,1.78,0,0,0-1.09-1.09l-41.42-15.1a1.82,1.82,0,0,1-.06-3.39l40.07-16.43a1.8,1.8,0,0,0,1-1l16.62-40.55a1.82,1.82,0,0,1,3.34-.07l18,39.21a1.83,1.83,0,0,0,.89.89l39.14,17.94A1.82,1.82,0,0,1,217.15,374.07Z"/><path class="cls-9" d="M765.49,488.34l-32.07,12.59a1.42,1.42,0,0,0-.8.81l-12.45,31.68a1.43,1.43,0,0,1-2.67,0L705.63,501a1.46,1.46,0,0,0-.86-.86l-32.5-11.9a1.43,1.43,0,0,1-.06-2.67l31.4-12.81a1.42,1.42,0,0,0,.78-.78l13-31.77a1.43,1.43,0,0,1,2.62-.05l14.15,30.77a1.44,1.44,0,0,0,.71.71l30.71,14.12A1.43,1.43,0,0,1,765.49,488.34Z"/><path class="cls-10" d="M580.59,623.56c-3.14,41.35-13.81,86.23-29.8,125.59-.81,2-1.62,3.93-2.45,5.86-25,58.75-62,103.81-103.37,103.81-70.17,0-128.2-129.66-136.17-235.83a153,153,0,0,0,45.7,6.7c44.19,0,81.13-17.22,90-40.18a31.78,31.78,0,0,0,1.12-3.51c6.29,24.7,44.69,43.69,91.13,43.69A153.75,153.75,0,0,0,580.59,623.56Z"/><path class="cls-11" d="M445.21,590.73s-2.92,49.07,35.09,79.58,57.85,19.75,70.52,79"/><path class="cls-12" d="M449.89,644.74c2.47,7.22,7,14.81,10.91,21.48,8.09,13.81,23.83,23.24,37.64,31.39,12.59,7.43,26,12.2,35.13,24,5.25,6.8,6.63,14.83,10.14,22.4,1.62,3.5,3.74,6.67,5.46,10,.54-1.29,1.08-2.57,1.62-3.88,16-39.35,26.66-84.23,29.8-125.59a153.39,153.39,0,0,1-43.84,6.14c-46.44,0-84.84-19-91.13-43.69a31.78,31.78,0,0,1-1.12,3.51v31.7C447.29,629.49,447.37,637.34,449.89,644.74Z"/><path class="cls-11" d="M444.59,603C444,626.35,450,648.19,465,668.13c5,5.7,9,10.44,15,15.19,13,9.5,25,16.14,39,23.74,18,11.4,26,30.39,30,49.08"/><path class="cls-11" d="M440.59,600.16s-2.92,49.07,35.1,79.59,57.84,19.75,70.51,79"/><polyline class="cls-13" points="388.02 822.93 434.15 740.81 449.54 749.22 485.98 691.07"/><path class="cls-11" d="M580.59,623.47c-3.14,41.36-13.81,86.23-29.8,125.59-.81,2-1.62,3.93-2.45,5.87-25,58.75-62,103.81-103.37,103.81-70.17,0-128.2-129.67-136.17-235.84a152.69,152.69,0,0,0,45.7,6.71c44.19,0,81.13-17.22,90-40.18a32.47,32.47,0,0,0,1.12-3.51c6.29,24.7,44.69,43.69,91.13,43.69A153.39,153.39,0,0,0,580.59,623.47Z"/><path class="cls-11" d="M445.21,590.64s-2.92,49.07,35.09,79.59,57.85,19.75,70.52,79"/><path class="cls-14" d="M449.89,644.66c2.47,7.22,7,14.81,10.91,21.48,8.09,13.81,23.83,23.24,37.64,31.39,12.59,7.43,26,12.2,35.13,24,5.25,6.8,6.63,14.83,10.14,22.39,1.62,3.5,3.74,6.68,5.46,10,.54-1.29,1.08-2.57,1.62-3.88,16-39.36,26.66-84.23,29.8-125.59a153.39,153.39,0,0,1-43.84,6.14c-46.44,0-84.84-19-91.13-43.69a32.47,32.47,0,0,1-1.12,3.51v31.69C447.29,629.41,447.37,637.26,449.89,644.66Z"/><path class="cls-11" d="M444.59,602.93C444,626.27,450,648.11,465,668.05c5,5.69,9,10.44,15,15.19,13,9.49,25,16.14,39,23.74,18,11.39,26,30.38,30,49.08"/><path class="cls-11" d="M440.59,600.08s-2.92,49.07,35.1,79.59,57.84,19.74,70.51,79"/></g></g></svg>